<svg width="35" height="35" viewBox="0 0 35 35" fill="none" xmlns="http://www.w3.org/2000/svg">
<path d="M28.4374 16.2313L8.02076 4.44794C7.79907 4.31995 7.54759 4.25256 7.2916 4.25256C7.03561 4.25256 6.78412 4.31995 6.56243 4.44794C6.33988 4.57643 6.15524 4.76144 6.02719 4.98424C5.89914 5.20704 5.83224 5.45972 5.83326 5.71669V29.2834C5.83224 29.5403 5.89914 29.793 6.02719 30.0158C6.15524 30.2386 6.33988 30.4236 6.56243 30.5521C6.78412 30.6801 7.03561 30.7475 7.2916 30.7475C7.54759 30.7475 7.79907 30.6801 8.02076 30.5521L28.4374 18.7688C28.6619 18.6416 28.8485 18.4571 28.9784 18.2342C29.1083 18.0114 29.1767 17.758 29.1767 17.5C29.1767 17.2421 29.1083 16.9887 28.9784 16.7658C28.8485 16.5429 28.6619 16.3585 28.4374 16.2313V16.2313ZM8.74993 26.7604V8.23961L24.7916 17.5L8.74993 26.7604Z" fill="white"/>
</svg>
