<svg width="100" height="100" viewBox="0 0 100 100" fill="none" xmlns="http://www.w3.org/2000/svg">
<circle cx="50" cy="50" r="49.5" stroke="white"/>
<path d="M50 40C50.6904 40 51.25 40.5596 51.25 41.25V48.75H58.75C59.4404 48.75 60 49.3096 60 50C60 50.6904 59.4404 51.25 58.75 51.25H51.25V58.75C51.25 59.4404 50.6904 60 50 60C49.3096 60 48.75 59.4404 48.75 58.75V51.25H41.25C40.5596 51.25 40 50.6904 40 50C40 49.3096 40.5596 48.75 41.25 48.75H48.75V41.25C48.75 40.5596 49.3096 40 50 40Z" fill="white"/>
</svg>
